<?xml version="1.0" standalone="no"?><!DOCTYPE svg PUBLIC "-//W3C//DTD SVG 1.1//EN" "http://www.w3.org/Graphics/SVG/1.1/DTD/svg11.dtd"><svg t="1652520562374" class="icon" viewBox="0 0 1024 1024" version="1.1" xmlns="http://www.w3.org/2000/svg" p-id="1623" xmlns:xlink="http://www.w3.org/1999/xlink" width="200" height="200"><defs><style type="text/css">@font-face { font-family: feedback-iconfont; src: url("//at.alicdn.com/t/font_1031158_u69w8yhxdu.woff2?t=1630033759944") format("woff2"), url("//at.alicdn.com/t/font_1031158_u69w8yhxdu.woff?t=1630033759944") format("woff"), url("//at.alicdn.com/t/font_1031158_u69w8yhxdu.ttf?t=1630033759944") format("truetype"); }
</style></defs><path d="M667.2 598.1l24 163.1c21.8 148-143.9 250.6-298.3 184.7l-170.1-72.7c-154.3-65.9-181.6-250.9-49-333l146.1-90.5c132.6-82 325.5 0.4 347.3 148.4z"  p-id="1624"></path><path d="M413.084289 314.438892a90 138 24.437 1 0 114.179113-251.275009 90 138 24.437 1 0-114.179113 251.275009Z"  p-id="1625"></path><path d="M137.204814 438.494762a90 138 24.437 1 0 114.179112-251.275009 90 138 24.437 1 0-114.179112 251.275009Z" p-id="1626"></path><path d="M690.068583 440.383783a90 138 24.437 1 0 114.179113-251.275009 90 138 24.437 1 0-114.179113 251.275009Z"  p-id="1627"></path><path d="M778.727414 730.103856a90 138 24.437 1 0 114.179112-251.275009 90 138 24.437 1 0-114.179112 251.275009Z"  p-id="1628"></path></svg>
